<svg id="Capa_1" enable-background="new 0 0 512.127 512.127" height="512" viewBox="0 0 512.127 512.127" width="512" xmlns="http://www.w3.org/2000/svg"><g><path d="m155.975 44.336-38.637 10.353-5.209-19.44c-2.859-10.669 3.473-21.636 14.142-24.495 10.669-2.859 21.636 3.473 24.495 14.142z" fill="#33d6f5"/><path d="m10.127 313.791c22.644 22.644 59.356 22.644 82 0 22.644 22.644 59.356 22.644 82 0 22.644 22.644 59.356 22.644 82 0 22.644 22.644 59.356 22.644 82 0 22.644 22.644 59.356 22.644 82 0 22.644 22.644 59.356 22.644 82 0v188.277h-492.127z" fill="#ccf5fc"/><path d="m136.656 49.512c-91.13 24.419-145.211 118.089-120.793 209.219l100.46-26.918c-24.418-91.13-15.315-172.749 20.333-182.301z" fill="#89df8f"/><path d="m245.415 197.223 100.46-26.918c-24.418-91.13-118.088-145.21-209.217-120.793 35.647-9.55 84.339 56.582 108.757 147.711z" fill="#ff7d97"/><path d="m136.658 49.512h-.001c-35.648 9.552-44.751 91.17-20.332 182.301l129.091-34.59c-24.419-91.129-73.111-157.261-108.758-147.711z" fill="#ffee80"/><path d="m193.652 210.202h40v253.324h-40z" fill="#33d6f5" transform="matrix(.966 -.259 .259 .966 -79.907 66.776)"/><g fill="#fff"><path d="m136.658 49.512h-.002z"/><rect height="133.645" width="0" x="180.869" y="147.695"/></g><path d="m502 472.024c-73.599-38.352-157.265-60.04-246-60.04s-172.4 21.688-246 60.04v30.043h492z" fill="#fffbdf"/><circle cx="464.098" cy="47.969" fill="#ffee80" r="37.902"/><g><path d="m506.621 463.156c-22.797-11.88-46.635-22.209-70.851-30.703-5.216-1.828-10.919.917-12.746 6.127-1.828 5.211.915 10.918 6.127 12.746 21.422 7.513 42.535 16.519 62.849 26.803v13.938h-472v-13.938c34.919-17.682 71.803-31.398 109.731-40.801 41.07-10.182 83.553-15.344 126.269-15.344 29.425 0 58.936 2.463 87.712 7.322 5.447.921 10.606-2.75 11.525-8.195.92-5.446-2.75-10.606-8.195-11.525-27.862-4.704-56.383-7.244-84.873-7.565l-18.138-67.691c4.26-2.007 8.317-4.459 12.084-7.305 11.745 8.92 26.008 13.749 41.012 13.749 14.999 0 29.256-4.824 41-13.739 11.744 8.915 26.001 13.739 41 13.739s29.256-4.824 41-13.739c11.744 8.915 26.001 13.739 41 13.739 18.159 0 35.23-7.071 48.071-19.912 3.905-3.905 3.905-10.237 0-14.142-3.906-3.905-10.236-3.905-14.143 0-9.062 9.062-21.112 14.054-33.929 14.054s-24.866-4.991-33.929-14.054c-1.876-1.875-4.419-2.929-7.071-2.929s-5.195 1.054-7.071 2.929c-9.062 9.062-21.112 14.054-33.929 14.054s-24.866-4.991-33.929-14.054c-1.876-1.875-4.419-2.929-7.071-2.929s-5.195 1.054-7.071 2.929c-9.062 9.062-21.112 14.054-33.929 14.054s-24.866-4.991-33.929-14.054c-1.876-1.875-4.419-2.929-7.071-2.929s-5.196 1.054-7.071 2.929c-3.119 3.12-6.577 5.73-10.32 7.847l-26.301-98.154 136.028-36.449c5.335-1.429 8.501-6.913 7.071-12.248-12.501-46.655-42.422-85.649-84.252-109.799-33.035-19.073-70.375-27.074-107.597-23.441l-3.261-12.169c-2.074-7.74-7.038-14.209-13.978-18.216-6.939-4.007-15.022-5.071-22.765-2.997-7.74 2.074-14.209 7.038-18.216 13.978s-5.071 15.024-2.997 22.764l3.268 12.198c-78.854 35.97-122.692 124.846-99.531 211.285.687 2.562 2.362 4.746 4.659 6.072 1.534.885 3.26 1.34 5 1.34.867 0 1.737-.113 2.588-.341l136.028-36.448 19.257 71.868c-2.51.098-4.898 1.127-6.681 2.91-9.062 9.062-21.112 14.054-33.929 14.054-12.816 0-24.866-4.991-33.929-14.054-1.875-1.875-4.419-2.929-7.071-2.929s-5.196 1.054-7.071 2.929c-9.062 9.062-21.112 14.054-33.929 14.054-12.816 0-24.866-4.991-33.929-14.054-3.905-3.905-10.237-3.905-14.143 0-3.905 3.905-3.905 10.237 0 14.143 12.841 12.84 29.913 19.912 48.071 19.912 14.999 0 29.256-4.824 41-13.739 11.744 8.915 26.001 13.739 41 13.739 15.001 0 29.26-4.825 41.004-13.743 2.263 1.714 4.629 3.282 7.086 4.698l19.574 73.051c-25.625 2.591-50.998 6.97-75.873 13.137-41.416 10.268-81.635 25.489-119.539 45.24-3.304 1.721-5.377 5.139-5.377 8.866v30.043c0 5.523 4.477 10 10 10h492c5.522 0 10-4.477 10-10v-30.043c0-3.727-2.073-7.145-5.379-8.868zm-392.718-351.977c3.255-29.186 12.729-48.628 25.341-52.008 1.396-.374 2.857-.559 4.376-.559 12.198 0 28.088 11.898 43.573 32.928 18.325 24.889 34.45 59.635 45.864 98.64l-109.553 29.355c-9.618-39.486-13.026-77.639-9.601-108.356zm147.379-35.941c34.302 19.804 59.6 50.833 72.052 88.074l-80.958 21.693c-12.073-41.392-29.334-78.508-49.077-105.322-7.897-10.725-15.96-19.433-24.011-26.03.615-.007 1.229-.03 1.844-.03 27.866-.001 55.37 7.308 80.15 21.615zm-138.495-50.166c1.335-2.313 3.492-3.968 6.072-4.659.861-.231 1.736-.345 2.604-.345 1.733 0 3.443.455 4.984 1.344 2.313 1.335 3.968 3.492 4.659 6.072l2.621 9.78-19.318 5.176-2.621-9.781c-.691-2.578-.336-5.273.999-7.587zm-21.001 49.398c-3.663 9.727-6.286 21.281-7.759 34.493-3.691 33.092-.074 73.866 10.165 115.748l-80.961 21.693c-14.031-69.119 19.02-138.305 78.555-171.934zm72.012 152.295 19.223-5.151.095-.025 48.391 180.598c-6.83.18-13.651.486-20.459.92z"/><path d="m464.099 95.871c26.413 0 47.901-21.489 47.901-47.902s-21.488-47.902-47.901-47.902-47.902 21.489-47.902 47.902 21.489 47.902 47.902 47.902zm0-75.804c15.385 0 27.901 12.517 27.901 27.902s-12.517 27.902-27.901 27.902c-15.386 0-27.902-12.517-27.902-27.902s12.516-27.902 27.902-27.902z"/><circle cx="389.403" cy="428.775" r="10"/></g></g></svg>