<svg id="Capa_1" enable-background="new 0 0 512 512" height="512" viewBox="0 0 512 512" width="512" xmlns="http://www.w3.org/2000/svg"><g><circle cx="131.646" cy="217.25" r="7.5"/><circle cx="379.5" cy="217.25" r="7.5"/><circle cx="131.646" cy="297.25" r="7.5"/><circle cx="379.5" cy="297.25" r="7.5"/><circle cx="131.646" cy="377.25" r="7.5"/><circle cx="379.5" cy="377.25" r="7.5"/><path d="m207 273.396c-4.142 0-7.5 3.358-7.5 7.5v10c0 4.142 3.358 7.5 7.5 7.5s7.5-3.358 7.5-7.5v-10c0-4.143-3.358-7.5-7.5-7.5z"/><path d="m305 298.396c4.142 0 7.5-3.358 7.5-7.5v-10c0-4.142-3.358-7.5-7.5-7.5s-7.5 3.358-7.5 7.5v10c0 4.142 3.358 7.5 7.5 7.5z"/><path d="m247.266 285.66c-1.787-3.737-6.266-5.318-10.001-3.531-3.737 1.787-5.318 6.265-3.531 10.001 9.056 18.939 36.449 18.996 45.532 0 1.787-3.737.206-8.215-3.531-10.001-3.737-1.788-8.215-.206-10.001 3.531-1.666 3.484-5.291 5.735-9.234 5.735s-7.568-2.251-9.234-5.735z"/><path d="m504.5 255.464c4.143 0 7.5-3.357 7.5-7.5v-65.714c0-28.948-23.552-52.5-52.5-52.5-71.789 0-41.044 0-113.501 0v-12.5c0-38.598-31.402-70-70-70h-40c-38.598 0-70 31.402-70 70v12.5c-13.825 0-102.594 0-113.499 0-28.948 0-52.5 23.552-52.5 52.5v133.952c0 4.143 3.357 7.5 7.5 7.5s7.5-3.357 7.5-7.5v-76.795c33.484-2.687 62.404-21.417 79.146-48.719v211.878c-16.458-26.838-45.132-45.99-79.146-48.719v-7.567c0-4.143-3.357-7.5-7.5-7.5s-7.5 3.357-7.5 7.5v65.971c0 28.948 23.552 52.5 52.5 52.5h407c28.948 0 52.5-23.552 52.5-52.5v-134.287c0-4.143-3.357-7.5-7.5-7.5s-7.5 3.357-7.5 7.5v75.815c-33.857 2.46-63.204 21.437-80 48.892v-212.088c16.796 27.455 46.143 46.431 80 48.892v8.489c0 4.142 3.357 7.5 7.5 7.5zm-162.5-64.413v17.31l-49.82 28.764c-3.338-3.779-5.891-8.197-7.498-12.985 29.073-16.743 16.581-9.532 57.318-33.089zm-58.967 16.729c1.405-11.508 7.913-21.904 18.473-28.001 10.383-5.994 22.816-6.536 33.476-1.997-40.971 23.693-29.532 17.089-51.949 29.998zm58.967 17.901v17.12c-10.677 7.606-24.327 9.088-36.466 3.934zm0-61.201c-15.168-6.886-33.091-6.298-47.994 2.308-25.268 14.588-33.633 46.749-19.217 71.717 13.43 23.264 42.439 32.838 67.211 21.51v189.735h-85.5-87.354v-34.021l27.721 16.005c10.738 6.201 24.531 2.512 30.736-8.235l15-25.981c6.202-10.744 2.508-24.532-8.236-30.735l-51.962-30c-4.084-2.358-8.73-3.297-13.259-2.888l-.001-189.144h172.855zm-167.096 185.291 6.496 3.75-12.255 21.226v-25.673c1.907-.531 3.991-.324 5.759.697zm51.962 30c3.582 2.068 4.813 6.665 2.746 10.245l-15 25.98c-2.067 3.583-6.664 4.813-10.246 2.746l-6.495-3.75 22.5-38.972zm-41.985 27.722-12.99-7.5 22.5-38.971 12.99 7.5zm101.118-277.743c-6.136 0-53.577 0-60 0v-12.5c0-5.514 4.486-10 10-10h40c5.514 0 10 4.486 10 10zm-105-12.5c0-30.327 24.673-55 55-55h40c30.327 0 55 24.673 55 55v12.5h-30v-12.5c0-13.785-11.215-25-25-25h-40c-13.785 0-25 11.215-25 25v12.5h-30zm-165.999 107.088v-42.088c0-20.678 16.822-37.5 37.5-37.5h41.318c-3.599 41.858-37.006 75.587-78.818 79.588zm0 187.912v-43.334c42.227 4.041 75.883 38.401 78.918 80.834h-41.418c-20.678 0-37.5-16.822-37.5-37.5zm94.146 37.5v-305h45v305zm247.854-305h45v305h-45zm140 224.079v43.421c0 20.678-16.822 37.5-37.5 37.5h-42.274c3.041-42.857 37.083-77.279 79.774-80.921zm-79.675-224.079h42.175c20.678 0 37.5 16.822 37.5 37.5v42.175c-42.277-3.606-76.069-37.398-79.675-79.675z"/></g></svg>